:SAMPLES-PER-SECOND 30
:FULLY-SPECIFIED
:DEGREES
322
root  -33.0034 34.3239 3.38373 -171.26 81.612 179.984
RightUpLeg  -11.0474 -7.54098 -1.21644
RightLeg  14.4873 8.13938 1.54895
RightFoot  -0.866214 -0.00234125 -0.0839374
RightToes  -31.0572 -0.15287 -0.269121
Spine  -2.59614 -0.919956 0.392361
Spine1  -4.75934 -2.19058 1.52988
HEad  -65.1513 1.0497 2.59918
LeftShoulder1  -1.94126e-019 -3.10601e-018 -2.51263e-017
LeftArm  -25.8853 35.465 -79.7144
LeftForeArm  29.943 -5.71854 -0.997281
LeftHand  -0.331087 1.67383 10.227
RightShoulder  -4.96962e-017 0 -2.36833e-017
RightArm  -45.9952 -37.0522 69.4372
RightForeArm  62.8423 5.44398 0.911743
RightHand  -0.123042 -4.15926 -10.1881
LeftUpLeg  -11.9205 3.28827 -1.01555
LeftLeg  14.4365 13.5866 2.55282
LeftFoot  0.425114 0.00171027 0.205475
LeftToes  -17.4758 1.89912e-006 4.45198e-008
323
root  -32.9872 34.3204 3.37102 -171.363 81.4952 179.883
RightUpLeg  -11.0469 -7.52711 -1.24681
RightLeg  14.5903 8.01786 1.54083
RightFoot  -0.965607 -0.00214074 -0.0935991
RightToes  -30.9612 -0.15266 -0.269277
Spine  -2.62305 -0.943191 0.373968
Spine1  -4.78787 -2.23739 1.50463
HEad  -65.0488 1.01351 2.40276
LeftShoulder1  -1.94126e-019 -3.10601e-018 -2.51263e-017
LeftArm  -26.0613 36.3383 -79.3308
LeftForeArm  29.3602 -6.52386 -1.13983
LeftHand  -0.333061 1.46479 9.76156
RightShoulder  -4.96962e-017 0 -2.36833e-017
RightArm  -44.9876 -37.9025 69.6018
RightForeArm  62.1535 6.35625 1.07253
RightHand  -0.18387 -3.366 -9.85309
LeftUpLeg  -11.9312 3.1839 -1.03748
LeftLeg  14.4987 13.5759 2.56594
LeftFoot  0.411174 0.00141103 0.204251
LeftToes  -17.5924 1.89912e-006 4.45198e-008
324
root  -32.9773 34.3283 3.36527 -171.471 81.3936 179.788
RightUpLeg  -10.9733 -7.58864 -1.26308
RightLeg  14.53 7.97615 1.52421
RightFoot  -0.934264 -0.0023811 -0.0857546
RightToes  -30.9243 -0.152425 -0.26943
Spine  -2.6569 -0.943747 0.366725
Spine1  -4.86546 -2.22563 1.49012
HEad  -64.4909 1.00196 2.11786
LeftShoulder1  -1.94126e-019 -3.10601e-018 -2.51263e-017
LeftArm  -26.3125 36.6456 -79.1848
LeftForeArm  29.3638 -7.09848 -1.24139
LeftHand  -0.338454 1.32543 9.59616
RightShoulder  -4.96962e-017 0 -2.36833e-017
RightArm  -44.7219 -38.1548 69.9078
RightForeArm  61.0188 7.11715 1.20917
RightHand  -0.199043 -3.06244 -9.37425
LeftUpLeg  -11.8545 3.12094 -1.04891
LeftLeg  14.3792 13.5379 2.52999
LeftFoot  0.455725 0.000918351 0.216913
LeftToes  -17.4543 1.89912e-006 4.45198e-008
325
root  -32.9722 34.3461 3.36203 -171.581 81.2981 179.71
RightUpLeg  -10.8109 -7.61453 -1.27715
RightLeg  14.3108 7.90763 1.48002
RightFoot  -0.837039 -0.00250638 -0.0671479
RightToes  -30.865 -0.152167 -0.269579
Spine  -2.68054 -0.926189 0.355328
Spine1  -4.95471 -2.16909 1.46002
HEad  -63.6589 0.927915 1.75767
LeftShoulder1  -1.94126e-019 -3.10601e-018 -2.51263e-017
LeftArm  -26.3445 36.3755 -79.174
LeftForeArm  29.4693 -7.4887 -1.31073
LeftHand  -0.335655 1.28115 9.41728
RightShoulder  -4.96962e-017 0 -2.36833e-017
RightArm  -44.9286 -37.6689 70.342
RightForeArm  60.3402 7.45808 1.27091
RightHand  -0.199697 -3.03574 -9.24496
LeftUpLeg  -11.6852 3.19037 -1.05725
LeftLeg  14.0776 13.3976 2.43216
LeftFoot  0.614604 -0.000504888 0.255719
LeftToes  -17.4601 1.89912e-006 4.45198e-008
326
root  -32.9762 34.3741 3.35857 -171.689 81.2189 179.646
RightUpLeg  -10.5736 -7.69202 -1.2945
RightLeg  13.9142 7.93146 1.42802
RightFoot  -0.6047 -0.00291821 -0.0308391
RightToes  -30.9468 -0.151889 -0.269724
Spine  -2.66505 -0.885493 0.330391
Spine1  -4.99155 -2.05487 1.39591
HEad  -62.939 0.937031 1.60178
LeftShoulder1  -1.94126e-019 -3.10601e-018 -2.51263e-017
LeftArm  -26.2962 35.4938 -79.2861
LeftForeArm  29.3431 -7.77413 -1.36158
LeftHand  -0.334321 1.22354 9.25528
RightShoulder  -4.96962e-017 0 -2.36833e-017
RightArm  -45.048 -36.4221 70.9023
RightForeArm  60.2728 7.49146 1.27694
RightHand  -0.194271 -3.10568 -9.29794
LeftUpLeg  -11.4386 3.18261 -1.06482
LeftLeg  13.6192 13.3366 2.31239
LeftFoot  0.839154 -0.00109015 0.31044
LeftToes  -17.3776 1.89912e-006 4.45198e-008
327
root  -32.9827 34.4084 3.35657 -171.748 81.1793 179.638
RightUpLeg  -10.2495 -7.69727 -1.30382
RightLeg  13.3391 7.91322 1.34332
RightFoot  -0.303138 -0.00142678 0.017492
RightToes  -31.0547 -0.151593 -0.269864
Spine  -2.60209 -0.805474 0.298884
Spine1  -4.95203 -1.84932 1.31291
HEad  -62.4576 0.918089 1.48952
LeftShoulder1  -1.94126e-019 -3.10601e-018 -2.51263e-017
LeftArm  -26.0808 34.1799 -79.515
LeftForeArm  28.8515 -8.33008 -1.46115
LeftHand  -0.325602 1.22564 9.01425
RightShoulder  -4.96962e-017 0 -2.36833e-017
RightArm  -44.4984 -34.676 71.5726
RightForeArm  60.0169 7.66212 1.30603
RightHand  -0.194086 -3.08568 -9.20976
LeftUpLeg  -11.1081 3.10097 -1.06676
LeftLeg  13.0044 13.4088 2.17832
LeftFoot  1.16458 -0.00168554 0.392023
LeftToes  -17.4283 1.89912e-006 4.45198e-008
328
root  -32.9891 34.4603 3.35396 -171.768 81.1733 179.676
RightUpLeg  -9.75195 -7.66484 -1.30518
RightLeg  12.422 7.88692 1.21
RightFoot  0.112489 0.000219655 0.0820289
RightToes  -30.8886 -0.151281 -0.269997
Spine  -2.52006 -0.692719 0.258532
Spine1  -4.88913 -1.57109 1.20829
HEad  -62.0166 0.774528 1.46407
LeftShoulder1  -1.94126e-019 -3.10601e-018 -2.51263e-017
LeftArm  -25.7322 32.7668 -79.8456
LeftForeArm  27.5069 -9.71006 -1.70804
LeftHand  -0.304007 1.29711 8.54523
RightShoulder  -4.96962e-017 0 -2.36833e-017
RightArm  -42.8003 -32.8373 72.352
RightForeArm  58.9756 8.62138 1.43942
RightHand  -0.196504 -2.84305 -8.47248
LeftUpLeg  -10.6012 3.06324 -1.06403
LeftLeg  12.0461 13.4825 1.96166
LeftFoot  1.60009 -0.00473829 0.500878
LeftToes  -17.3072 1.89912e-006 4.45198e-008
329
root  -32.9909 34.5502 3.34963 -171.787 81.1583 179.713
RightUpLeg  -8.88262 -7.73281 -1.30673
RightLeg  10.7279 7.98228 0.985085
RightFoot  0.969428 0.00221276 0.208327
RightToes  -31.0015 -0.150956 -0.270125
Spine  -2.42265 -0.51582 0.220638
Spine1  -4.79816 -1.15904 1.11
HEad  -61.4758 0.555063 1.4953
LeftShoulder1  -1.94126e-019 -3.10601e-018 -2.51263e-017
LeftArm  -24.6494 31.1645 -80.2644
LeftForeArm  25.5116 -11.8683 -2.04058
LeftHand  -0.271261 1.37922 7.7522
RightShoulder  -4.96962e-017 0 -2.36833e-017
RightArm  -36.2808 -31.7076 73.117
RightForeArm  54.1613 11.8494 1.51075
RightHand  -0.150977 -2.94238 -6.58784
LeftUpLeg  -9.73978 3.08128 -1.06209
LeftLeg  10.3389 13.5141 1.56089
LeftFoot  2.44543 -0.0164612 0.708035
LeftToes  -17.4931 1.89912e-006 4.45198e-008
330
root  -32.9903 34.6987 3.33141 -171.763 80.9787 179.772
RightUpLeg  -7.40179 -7.89476 -1.3137
RightLeg  7.80472 7.97846 0.57517
RightFoot  2.41916 0.00143084 0.415838
RightToes  -31.0893 -0.150621 -0.270245
Spine  -2.35125 -0.304954 0.165412
Spine1  -4.72678 -0.678669 0.9885
HEad  -61.0073 -0.0373456 1.61835
LeftShoulder1  -1.94126e-019 -3.10601e-018 -2.51263e-017
LeftArm  -22.5606 29.8837 -80.6819
LeftForeArm  23.3351 -15.4175 -2.4333
LeftHand  -0.245693 1.24681 6.79332
RightShoulder  -4.96962e-017 0 -2.36833e-017
RightArm  -27.2206 -31.6678 73.2891
RightForeArm  48.2454 17.3814 1.39071
RightHand  -0.113501 -2.97413 -4.81684
LeftUpLeg  -8.27518 2.82132 -1.06133
LeftLeg  7.328 13.6501 0.860562
LeftFoot  3.84491 -0.0383953 1.05679
LeftToes  -17.2531 1.89912e-006 4.45198e-008
331
root  -32.9905 34.8567 3.29637 -171.69 80.639 179.858
RightUpLeg  -5.64968 -8.14109 -1.33015
RightLeg  4.3304 7.90904 0.0909615
RightFoot  4.11444 -0.00637993 0.664522
RightToes  -30.9966 -0.150277 -0.270357
Spine  -2.36145 -0.152432 0.0428386
Spine1  -4.76001 -0.301839 0.800384
HEad  -60.8216 -0.405319 1.83083
LeftShoulder1  -1.94126e-019 -3.10601e-018 -2.51263e-017
LeftArm  -18.2697 30.5754 -80.5094
LeftForeArm  21.1389 -25.3298 -4.24352
LeftHand  -0.233616 1.38507 6.65717
RightShoulder  -4.96962e-017 0 -2.36833e-017
RightArm  -19.756 -32.9488 72.0949
RightForeArm  44.9276 25.8278 3.14088
RightHand  -0.0987063 -3.33081 -4.71571
LeftUpLeg  -6.61262 2.60233 -1.07664
LeftLeg  3.81232 13.5598 0.0300764
LeftFoot  5.53266 -0.0657794 1.47586
LeftToes  -17.2344 1.89912e-006 4.45198e-008
332
root  -32.9974 34.8817 3.26735 -171.944 80.2415 179.619
RightUpLeg  -5.30076 -8.23445 -1.3867
RightLeg  3.76208 7.59454 0.0121641
RightFoot  4.3657 -0.00727203 0.679561
RightToes  -30.7733 -0.149927 -0.270461
Spine  -2.40178 -0.154141 0.023989
Spine1  -4.85411 -0.280414 0.758128
HEad  -60.8628 -0.388422 1.92366
LeftShoulder1  -1.94126e-019 -3.10601e-018 -2.51263e-017
LeftArm  -13.2906 32.4751 -79.3966
LeftForeArm  21.144 -38.2624 -7.47277
LeftHand  -0.226592 1.477 6.59142
RightShoulder  -4.96962e-017 0 -2.36833e-017
RightArm  -12.6634 -35.3266 69.4857
RightForeArm  43.0567 40.0383 6.62874
RightHand  -0.0922689 -3.33461 -4.34626
LeftUpLeg  -6.33912 2.40943 -1.13543
LeftLeg  3.18026 13.3733 -0.116446
LeftFoot  5.91535 -0.0717702 1.55058
LeftToes  -17.5227 1.89912e-006 4.45198e-008
333
root  -32.9934 34.9041 3.2407 -172.566 79.9024 179.098
RightUpLeg  -4.91733 -7.95648 -1.48957
RightLeg  3.33761 6.94166 -0.0402628
RightFoot  4.4826 -0.00501602 0.648906
RightToes  -30.2772 -0.149575 -0.270556
Spine  -2.40884 -0.154184 -0.0244414
Spine1  -4.87082 -0.258983 0.652759
HEad  -61.0047 -0.34561 2.03073
LeftShoulder1  -1.94126e-019 -3.10601e-018 -2.51263e-017
LeftArm  -8.51959 34.1047 -77.4477
LeftForeArm  22.2565 -50.8591 -12.0458
LeftHand  -0.214696 1.3979 6.11906
RightShoulder  -4.96962e-017 0 -2.36833e-017
RightArm  -7.50671 -36.7596 66.4589
RightForeArm  42.8335 52.4313 11.0935
RightHand  -0.0832622 -3.30532 -3.77084
LeftUpLeg  -5.93485 2.2528 -1.23779
LeftLeg  2.52629 13.1763 -0.26378
LeftFoot  6.21555 -0.0781896 1.60159
LeftToes  -17.4221 1.89912e-006 4.45198e-008
334
root  -32.9852 34.9313 3.21663 -172.955 79.5277 178.846
RightUpLeg  -4.46254 -8.02582 -1.57068
RightLeg  2.85473 6.63736 -0.0944158
RightFoot  4.69362 -0.00515196 0.652778
RightToes  -30.2986 -0.149221 -0.270641
Spine  -2.41359 -0.13244 -0.0775056
Spine1  -4.87144 -0.193481 0.542369
HEad  -61.1704 -0.512756 2.20124
LeftShoulder1  -1.94126e-019 -3.10601e-018 -2.51263e-017
LeftArm  -4.7553 35.2656 -75.2722
LeftForeArm  24.954 -62.4247 -19.524
LeftHand  -0.182753 1.4632 5.25426
RightShoulder  -4.96962e-017 0 -2.36833e-017
RightArm  -4.08377 -37.6454 63.5571
RightForeArm  44.6648 63.6324 18.2378
RightHand  -0.047798 -3.53946 -1.86777
LeftUpLeg  -5.45195 1.96992 -1.28947
LeftLeg  1.78885 13.0808 -0.428817
LeftFoot  6.54271 -0.0861935 1.66945
LeftToes  -17.2162 1.89912e-006 4.45198e-008
